<svg xmlns="http://www.w3.org/2000/svg" width="82" height="82" viewBox="0 0 82 82"><g><g><path fill="#ee7965" d="M7.631 62.75H2.465v3.248l2.583 6.058 2.583-6.058zM57.36 77.835c.34 0 .615-.307.615-.679 0-.378-.275-.684-.615-.684H3.24c-.34 0-.615.306-.615.684 0 .372.275.679.615.679zM8.965.209c-.34 0-.614.311-.614.684v10.15c0 .379.275.685.614.685.34 0 .615-.306.615-.684V1.577h26.093c.335 0 .61-.306.61-.684 0-.373-.275-.684-.61-.684zm60.387 18.9h-.005l-.005-.011a.604.604 0 0 0-.475-.25c-.135 0-.26.05-.36.127l-.004.006c-.025.022-.046.044-.07.067l-.005.01h-.005v.007l-.03.033-.01.011-2.414 2.992a.74.74 0 0 0 .045.963c.25.256.64.228.864-.05l1.375-1.702v13.872c0 .378.275.684.614.684.34 0 .615-.306.615-.684V21.312l1.369 1.702c.23.278.614.306.864.05a.734.734 0 0 0 .05-.963zm5.776 21.359h-.005l-.005-.011a.588.588 0 0 0-.475-.25c-.134 0-.26.05-.36.127l-.004.006c-.025.022-.045.045-.07.066l-.005.006-.005.006-.005.005-.025.034-.01.01-2.413 2.993a.74.74 0 0 0 .045.962c.25.256.64.228.864-.05l1.374-1.701v13.871c0 .378.275.685.615.685.34 0 .614-.306.614-.685V42.671l1.37 1.701c.229.278.614.306.864.05a.734.734 0 0 0 .05-.962zm-5.701 6.224l-.01-.011a.588.588 0 0 0-.475-.25c-.135 0-.26.05-.36.127v.006l-.075.067-.004.005-.005.006v.005l-.03.034-.01.01-2.414 2.993a.74.74 0 0 0 .045.962c.255.257.64.229.865-.05l1.374-1.702V58.6c0 .373.274.685.614.685.34 0 .615-.312.615-.685v-9.706l1.374 1.703a.568.568 0 0 0 .864.05.74.74 0 0 0 .045-.963zM18.849 81.389c.34 0 .615-.306.615-.684 0-.373-.275-.684-.615-.684H1.105c-.34 0-.614.31-.614.684 0 .378.275.684.614.684zm62.046.111c.339 0 .614-.306.614-.684 0-.373-.275-.679-.614-.679h-4.682c-.34 0-.615.306-.615.679 0 .378.274.684.615.684zm-8.515 0c.34 0 .615-.306.615-.684 0-.373-.275-.679-.615-.679H34.929c-.34 0-.615.306-.615.679 0 .378.275.684.615.684zM2.465 61.382H7.63V26.874H2.465zM7.63 22.563v-5.24a.66.66 0 0 0-.155-.428.533.533 0 0 0-.39-.178H2.6a.13.13 0 0 0-.095.045.16.16 0 0 0-.04.105v5.696zm0 2.943V23.93H2.465v1.575zm44.297-4.684h2.733c.335 0 .61.306.61.679v8.46c0 .378-.275.684-.61.684h-2.733c-.335 0-.614-.306-.614-.684V21.5c0-.373.28-.679.614-.679zm2.119 1.363h-1.504v7.092h1.504zm-8.26-6.441h2.733c.335 0 .61.306.61.684v13.533c0 .378-.275.684-.61.684h-2.733c-.335 0-.615-.306-.615-.684V16.428c0-.378.28-.684.615-.684zm2.118 1.368h-1.503v12.165h1.503zm-8.26 1.958h2.734c.335 0 .615.306.615.684v10.207c0 .378-.28.684-.615.684h-2.733c-.335 0-.615-.306-.615-.684V19.754c0-.378.28-.684.615-.684zm2.12 1.363H40.26v8.844h1.504zm-8.26 1.173h2.728c.34 0 .614.306.614.684v7.67c0 .38-.274.685-.614.685h-2.728c-.34 0-.615-.306-.615-.684v-7.67c0-.379.275-.685.615-.685zm2.118 1.369H34.12v6.302h1.504zm-8.26-5.54h2.729c.34 0 .614.306.614.684V29.96c0 .378-.274.684-.614.684h-2.728c-.34 0-.615-.306-.615-.684V18.119c0-.378.275-.684.615-.684zm2.12 1.368h-1.505v10.474h1.504zm-8.26 6.43h2.728c.34 0 .614.306.614.684v4.044c0 .378-.274.684-.614.684h-2.728c-.34 0-.615-.306-.615-.684v-4.044c0-.378.275-.684.615-.684zm2.113 1.368h-1.499v2.676h1.5zM50.64 58.367h6.76c.335 0 .615.306.615.684v7.526c0 .378-.28.684-.615.684h-6.76c-.34 0-.615-.306-.615-.684V59.05c0-.378.275-.684.615-.684zm6.146 1.368h-5.532v6.158h5.532zm-16.83-1.368h6.761c.34 0 .615.306.615.684v7.526c0 .378-.275.684-.615.684h-6.76c-.34 0-.615-.306-.615-.684V59.05c0-.378.275-.684.614-.684zm6.147 1.368H40.57v6.158h5.532zm-16.83-1.368h6.761c.335 0 .615.306.615.684v7.526c0 .378-.28.684-.615.684h-6.76c-.34 0-.615-.306-.615-.684V59.05c0-.378.274-.684.614-.684zm6.146 1.368h-5.531v6.158h5.531zM18.59 58.367h6.76c.335 0 .616.306.616.684v7.526c0 .378-.28.684-.615.684h-6.76c-.34 0-.615-.306-.615-.684V59.05c0-.378.274-.684.614-.684zm6.146 1.368h-5.531v6.158h5.531zM50.64 47.632h6.76c.335 0 .615.306.615.684v7.52c0 .378-.28.684-.615.684h-6.76c-.34 0-.615-.306-.615-.684v-7.52c0-.378.275-.684.615-.684zM56.785 49h-5.532v6.152h5.532zm-16.83-1.368h6.761c.34 0 .615.306.615.684v7.52c0 .378-.275.684-.615.684h-6.76c-.34 0-.615-.306-.615-.684v-7.52c0-.378.275-.684.614-.684zM46.102 49H40.57v6.152h5.532zm-16.83-1.368h6.761c.335 0 .615.306.615.684v7.52c0 .378-.28.684-.615.684h-6.76c-.34 0-.615-.306-.615-.684v-7.52c0-.378.274-.684.614-.684zM35.418 49h-5.531v6.152h5.531zM18.59 47.632h6.76c.335 0 .616.306.616.684v7.52c0 .378-.28.684-.615.684h-6.76c-.34 0-.615-.306-.615-.684v-7.52c0-.378.274-.684.614-.684zM24.735 49h-5.531v6.152h5.531zM50.64 36.891h6.76c.335 0 .615.306.615.684v7.526c0 .378-.28.684-.615.684h-6.76c-.34 0-.615-.306-.615-.684v-7.526c0-.378.275-.684.615-.684zm6.146 1.369h-5.532v6.157h5.532zm-16.83-1.369h6.761c.34 0 .615.306.615.684v7.526c0 .378-.275.684-.615.684h-6.76c-.34 0-.615-.306-.615-.684v-7.526c0-.378.275-.684.614-.684zm6.147 1.369H40.57v6.157h5.532zm-16.83-1.369h6.761c.335 0 .615.306.615.684v7.526c0 .378-.28.684-.615.684h-6.76c-.34 0-.615-.306-.615-.684v-7.526c0-.378.274-.684.614-.684zm6.146 1.369h-5.531v6.157h5.531zM18.59 36.89h6.76c.335 0 .616.306.616.684v7.526c0 .378-.28.684-.615.684h-6.76c-.34 0-.615-.306-.615-.684v-7.526c0-.378.274-.684.614-.684zm6.146 1.369h-5.531v6.157h5.531zM18.02 9.642h39.95c.34 0 .614.306.614.684v22.961c0 .373-.275.684-.615.684H18.02c-.34 0-.614-.311-.614-.684v-22.96c0-.379.275-.685.615-.685zm39.334 1.369h-38.72v21.592h38.72zm5.432-5.318H13.207v67.269l49.484-.184z"/></g></g></svg>