<svg xmlns="http://www.w3.org/2000/svg" width="70" height="80" viewBox="0 0 70 80"><g><g><g><g><path fill="#ee7965" d="M47.843 45.333a.643.643 0 0 0-.644.643v19.876H16.043a1.61 1.61 0 0 1-1.14-.476 1.591 1.591 0 0 1-.47-1.134V15.515c0-.44.177-.847.47-1.14.293-.287.696-.47 1.14-.47h37.625c.44 0 .847.183 1.135.476.293.292.476.695.476 1.134v29.818h-7.436zM.643 79.85a.642.642 0 1 1 0-1.286H13.34a.643.643 0 1 1 0 1.286zm53.741.073a.642.642 0 1 1 0-1.286h3.353a.642.642 0 1 1 0 1.286zm-29.54 0a.643.643 0 1 1 0-1.286h26.8a.643.643 0 1 1 0 1.286zM2.17 77.566a.642.642 0 1 1 0-1.286h38.723a.643.643 0 1 1 0 1.286zM62.694 72.3a.642.642 0 0 0-.638.643c0 .35.288.643.638.643h4.408a.643.643 0 1 0 0-1.286zm0-1.73a.642.642 0 0 0-.638.642c0 .35.288.644.638.644h4.408a.643.643 0 1 0 0-1.286zm-9.643.512l-.941-.936a.643.643 0 1 0-.91.91l.941.936-.941.94a.643.643 0 0 0 .005.906c.251.25.659.25.905 0l.936-.937.941.937a.644.644 0 0 0 .91-.91l-.942-.936.942-.942a.642.642 0 0 0-.91-.904zm10.824-8.22v1.322a.643.643 0 1 0 1.287 0v-1.323h1.323a.643.643 0 1 0 0-1.286h-1.323v-1.329a.643.643 0 1 0-1.287 0v1.329h-1.328a.643.643 0 1 0 0 1.286zm-8.392 0a.65.65 0 0 0 .643-.644.646.646 0 0 0-.643-.643H51.54a.646.646 0 0 0-.644.643c0 .35.294.643.644.643zm-23.5-29.426a.643.643 0 1 0 0-1.287H16.597a.641.641 0 0 0-.638.644c0 .355.287.643.638.643zm12.816-3.88a.643.643 0 1 0 0-1.287H16.598a.645.645 0 0 0-.638.644c0 .355.287.643.638.643zM32.871 6.238a2.798 2.798 0 0 0 0 3.97 2.794 2.794 0 0 0 1.982.82 2.797 2.797 0 0 0 2.808-2.808c0-.774-.313-1.474-.82-1.982a2.799 2.799 0 0 0-3.97 0zm3.504 1.982c0 .424-.168.8-.444 1.078a1.519 1.519 0 0 1-2.15 0 1.512 1.512 0 0 1 0-2.155 1.518 1.518 0 0 1 2.594 1.077zm20.19 7.295c0-.795-.33-1.521-.858-2.044a2.882 2.882 0 0 0-2.039-.853h-7.577l.016-4.361h12.57c.498 0 .947.199 1.271.528.325.324.528.774.528 1.266v35.282h-3.91zm-33.018-2.897h-7.503c-.796 0-1.517.324-2.04.847l-.01.01a2.888 2.888 0 0 0-.848 2.04v48.726c0 .796.325 1.522.853 2.045.522.523 1.25.853 2.044.853H47.2v4.366H11.03c-.497 0-.942-.204-1.266-.528a1.797 1.797 0 0 1-.528-1.27V10.05c0-.492.204-.942.528-1.266l.026-.031a1.79 1.79 0 0 1 1.24-.497h12.534l-.016 4.361zm8.435 52.267a.643.643 0 1 0 0-1.286H16.598a.641.641 0 0 0-.638.643c0 .355.287.643.638.643zm12.817-3.88a.643.643 0 1 0 0-1.287H16.598a.645.645 0 0 0-.638.644c0 .355.287.643.638.643zm0-3.875a.643.643 0 1 0 0-1.286H16.598a.641.641 0 0 0-.638.643c0 .355.287.643.638.643zm-12.817-3.88a.642.642 0 1 0 0-1.281H16.598a.641.641 0 0 0 0 1.28zM15.96 20.467v3.504c0 .35.287.643.638.643h33.577a.646.646 0 0 0 .643-.643v-3.504a.643.643 0 0 0-.643-.643H16.598a.641.641 0 0 0-.638.643zm33.572 2.86H17.24v-2.216h32.29zM.303 25.666c0-.517.215-.993.56-1.333.34-.34.815-.554 1.333-.554h1.538a1.891 1.891 0 0 1 1.893 1.888v1.892H.303v-1.893zm5.324 3.18v.784H.303v-.784zm-5.324 2.07zm0 0h2.018v16.039c0 .35.288.643.644.643a.646.646 0 0 0 .643-.643V30.916h2.019v21.973H2.468a.643.643 0 1 0 0 1.286h3.159v4.006l-2.662 4.246-2.662-4.246zM24.86 4.503h5.49a.643.643 0 0 0 .644-.643v-.016a3.88 3.88 0 0 1 1.13-2.714l.036-.036A3.842 3.842 0 0 1 34.853 0c1.067 0 2.034.434 2.73 1.13l.037.036a3.826 3.826 0 0 1 1.097 2.693c0 .356.288.643.639.643h5.485l-.032 8.116H24.83l.02-4.853a.724.724 0 0 0 0-.303zm25.19 44.45v5.04c0 .356.292.644.643.644h16.969a.642.642 0 0 0 .643-.644v-5.04a.642.642 0 0 0-.643-.644h-16.97a.646.646 0 0 0-.643.643zm16.974 4.402H51.336v-3.76h15.688zm-18.538 4.722h10.05v8.336h-10.05zm11.337 0h10.05v8.336h-10.05zm10.05 17.958h-10.05v-8.336h10.05zm-11.336 0H48.486v-8.336h10.05zM48.486 46.619h21.388V56.79H48.486z"/></g></g></g></g></svg>