<svg xmlns="http://www.w3.org/2000/svg" width="95" height="31" viewBox="0 0 95 31"><defs><clipPath id="bx3ia"><path fill="#fff" d="M.334 15.652C.334 8 7.986.348 15.638.348h63.22C86.512.348 94.164 8 94.164 15.652c0 7.653-7.652 15.305-15.304 15.305h-63.22C7.985 30.957.332 23.305.332 15.652z"/></clipPath></defs><g><g><path fill="#fff" d="M.334 15.652C.334 8 7.986.348 15.638.348h63.22C86.512.348 94.164 8 94.164 15.652c0 7.653-7.652 15.305-15.304 15.305h-63.22C7.985 30.957.332 23.305.332 15.652z"/><path fill="none" stroke="#707070" stroke-miterlimit="50" stroke-width="4" d="M.334 15.652C.334 8 7.986.348 15.638.348h63.22C86.512.348 94.164 8 94.164 15.652v0c0 7.653-7.652 15.305-15.304 15.305h-63.22C7.985 30.957.332 23.305.332 15.652z" clip-path="url(&quot;#bx3ia&quot;)"/></g><g><path fill="#707070" d="M37.083 15.052H22.878l4.25-4.233a.51.51 0 1 0-.722-.722l-5.053 5.053a.515.515 0 0 0 0 .722l5.053 5.053a.51.51 0 1 0 .722-.722l-4.25-4.13h14.205a.51.51 0 0 0 0-1.02z"/></g><g><g><text fill="#707070" style="line-height:21px;font-kerning:normal" dominant-baseline="text-before-edge" font-family="'Montserrat','Montserrat-Regular'" font-size="11" font-style="none" font-weight="400" transform="translate(43 8)"><tspan>Back</tspan></text></g></g></g></svg>