<svg xmlns="http://www.w3.org/2000/svg" width="94" height="80" viewBox="0 0 94 80"><g><g><path fill="#ee7965" d="M60.237 2.865l-.413.006h-.068l-.136.006-.181.005-.023.006-.198.01-.09.007-.114.005-.045.006c-.255.017-.504.045-.753.073l-.022.006-.158.017-.018.005-.396.063-.045.005-.147.029h-.006l-.153.028-.04.006-.107.022-.085.017-.175.034-.017.006-.029.005-.146.034-.017.006-.136.028-.057.017-.09.023-.102.022-.045.012-.142.04h-.006l-.147.039-.04.011-.107.034-.08.023-.067.017-.119.04-.023.005-.147.05h-.017l-.124.046-.057.017-.09.034-.096.029-.046.017-.136.05-.005.006-.142.051-.282.107-.114.046-.028.011-.136.057-.011.005-.125.057c-.187.079-.368.164-.549.249l-.034.017-.102.05c-.673.329-1.318.703-1.935 1.121l-.108.08-.011.005c-.374.26-.741.538-1.092.832l-.108.09-.005.006c-.311.26-.611.538-.9.821l-.074.073-.034.034-.102.102-.005.006-.21.22-.045.051-.056.063-.074.08-.028.033-.097.107-.01.006-.199.232-.04.051-.056.063-.187.226-.005.011a15.773 15.773 0 0 0-3.498 9.932c0 3.492 1.132 6.724 3.05 9.344l-.079.023c-.283.079-.588.119-.905.119-1.285 0-2.196-.708-2.796-1.851-.645-1.234-.968-2.954-1.035-4.867-.074-1.958.112-4.12.475-6.18.77-4.375 2.247-8.24 3.554-8.574a.7.7 0 0 0 .436-1.02 3.466 3.466 0 0 1-.238-.707 3.654 3.654 0 0 1-.085-.803c0-.996.39-1.89 1.025-2.542a3.46 3.46 0 0 1 4.46-.412c.3.209.701.152.928-.12l.01-.01c.3-.352.674-.64 1.093-.833.407-.192.86-.294 1.342-.294h9.253c.48 0 .934.102 1.341.294l.04.017c.407.199.77.482 1.063.827.233.277.64.322.929.119l.011-.006c.283-.198.6-.357.934-.464L69.23.77c.306-.09.64-.141.99-.141.968 0 1.84.396 2.473 1.04a3.629 3.629 0 0 1 1.03 2.542c0 .283-.033.555-.084.803a3.97 3.97 0 0 1-.26.759.695.695 0 0 0 .334.922l.118.046c1.313.334 2.785 4.193 3.554 8.574.363 2.06.55 4.222.481 6.18-.073 1.913-.39 3.633-1.04 4.867-.601 1.144-1.506 1.851-2.797 1.851-.311 0-.617-.04-.905-.119l-.057-.011-.016-.006a15.83 15.83 0 0 0 3.044-9.35c0-4.357-1.76-8.308-4.601-11.177l-.04-.04a15.843 15.843 0 0 0-9.259-4.527l-.056-.005-.323-.034-.05-.006-.057-.006-.051-.005h-.006l-.05-.006-.057-.006h-.051l-.04-.005h-.016l-.052-.006-.056-.005h-.073l-.034-.006h-.057l-.05-.005h-.063l-.051-.006h-.051l-.056-.005h-.057l-.051-.006h-.164zM29.87 39.515a.704.704 0 0 1 .979.103c.237.3.192.735-.102.973-.029.023-8.755 7.046-6.192 11.042 1.138 1.782 1.183 3.339 1.223 4.861.062 2.332.124 4.562 5.574 7.391.34.182.475.6.295.94a.687.687 0 0 1-.934.294c-6.175-3.209-6.248-5.835-6.322-8.597-.034-1.318-.073-2.682-1.008-4.137-3.23-5.053 6.458-12.847 6.487-12.87zM23.01 79.84a.7.7 0 0 1-.696-.697.7.7 0 0 1 .696-.696h15.62a.696.696 0 1 1 0 1.393zm66.103.084a.696.696 0 1 1 0-1.392h4.12a.696.696 0 1 1 0 1.392zm-36.334 0a.696.696 0 1 1 0-1.392h32.96a.695.695 0 1 1 0 1.392zm-27.89-2.897a.695.695 0 1 1 0-1.392h47.63a.695.695 0 1 1 0 1.392zM22.898 7.274a3.89 3.89 0 0 1 3.876 3.877v.05a.678.678 0 0 0 0 .64v9.644a3.864 3.864 0 0 1-1.137 2.74 3.916 3.916 0 0 1-1.262.842c-.453.193-.95.294-1.477.294H12.462l-.362.108-7.024 4.363-.005-4.448-.645-.04a6.891 6.891 0 0 1-1.71-.328 4 4 0 0 1-1.25-.662 3.023 3.023 0 0 1-.917-1.194c-.204-.458-.317-1.013-.317-1.675V11.15c0-1.07.436-2.038 1.138-2.74a3.867 3.867 0 0 1 2.733-1.137h18.795zm5.27 4.94h5.868c.854 0 1.64.346 2.212.9l.034.035c.572.577.934 1.375.934 2.246V25.73a3.187 3.187 0 0 1-3.18 3.18h-.968a.696.696 0 0 0-.696.697v3.22l-6.09-3.774a.663.663 0 0 0-.413-.142H15.241c-.645 0-1.25-.192-1.755-.526a3.264 3.264 0 0 1-1.177-1.415l.351-.215h10.238c.708 0 1.387-.147 2.015-.402a5.315 5.315 0 0 0 2.852-2.858 5.305 5.305 0 0 0 .402-2.01zM7.357 19.93v-2.474h2.438v-.984H7.357V15.09h2.824v-.985H6.174v5.824zm6.253-5.824h-1.245l-2.264 5.824h1.25l.482-1.325h2.337l.504 1.325h1.268zm-1.42 3.515l.786-2.157.81 2.157zm9.57.723c.141-.384.215-.825.215-1.33 0-.95-.255-1.691-.764-2.218-.504-.532-1.189-.798-2.055-.798-.865 0-1.556.266-2.065.798-.51.527-.764 1.268-.764 2.219 0 .956.254 1.698.758 2.23.51.526 1.211.792 2.105.792.464 0 .889-.085 1.268-.255.487.328.747.504.78.521.17.096.346.17.522.22l.43-.837a4.027 4.027 0 0 1-.94-.492c.232-.272.402-.56.51-.85zm-1.45.188a4.027 4.027 0 0 0-1.108-.605l-.329.684c.244.085.487.21.725.362a1.363 1.363 0 0 1-.481.085 1.44 1.44 0 0 1-1.132-.51c-.294-.333-.447-.848-.447-1.527 0-.674.153-1.177.447-1.511.3-.334.685-.504 1.166-.504.481 0 .866.17 1.165.498.295.34.442.837.442 1.51 0 .33-.034.618-.113.872-.074.25-.187.465-.334.646zm46.77 24.703l2.734-5.428c3.18 1.246 5.897 2.236 8.19 3.074 9.105 3.322 11.409 4.16 11.845 9.575.271 3.424-.532 6.395-2.128 8.908-1.59 2.507-3.973 4.573-6.871 6.22V53.466a.695.695 0 0 0-1.386-.085l-2.915 14.29c-5.337 2.683-10.793 3.934-16.243 3.883-5.654-.051-11.319-1.506-16.87-4.205l-2.989-14.03a.692.692 0 0 0-.82-.532.7.7 0 0 0-.555.68v12.258c-2.756-1.506-5.042-3.373-6.633-5.592-1.613-2.247-2.513-4.867-2.45-7.855.147-7.103 1.946-7.76 11.941-11.404 2.286-.837 4.991-1.822 8.16-3.056l2.745 5.852a.83.83 0 0 0 .057.125l4.448 9.485 1.647 3.509a.692.692 0 0 0 1.245.017l6.792-13.464c.022-.029.034-.063.05-.09zM59.64 54.91l-5.45-11.62v-9.898c1.862.77 3.905 1.2 6.05 1.2 1.93 0 3.786-.35 5.495-.985v9.208zm3.86-43.623zm0 0a15.75 15.75 0 0 0 10.815 4.336 14.38 14.38 0 0 1 .334 3.106c0 3.979-1.613 7.584-4.222 10.193a14.372 14.372 0 0 1-10.187 4.222 14.386 14.386 0 0 1-10.193-4.222 14.372 14.372 0 0 1-4.222-10.193c0-1.403.199-2.756.572-4.035.81.328 1.653.594 2.524.786 1.115.25 2.27.38 3.447.38a15.79 15.79 0 0 0 11.132-4.573zM46.87 13.33a14.343 14.343 0 0 1 2.564-4.149l.017-.017.12-.13.039-.045.073-.08.012-.016c.113-.12.232-.238.35-.357a14.343 14.343 0 0 1 8.331-4.103l.023-.006c.362-.045.73-.073 1.098-.096h.017c.18-.011.356-.017.537-.017h.538l.012.006h.04l.14.005h.012c1.743.062 3.407.442 4.94 1.075l-.016.035-.012.028-.017.034-.005.022-.006.012-.011.034-.017.028-.04.102-.017.028-.01.034-.018.034-.011.034-.017.029-.006.022-.034.073-.017.035-.006.01-.011.023-.011.029c-.221.475-.464.934-.736 1.375a14.06 14.06 0 0 1-1.76 2.349l-.023.028-.011.011a14.142 14.142 0 0 1-2.235 1.959 14.339 14.339 0 0 1-8.32 2.643 14.324 14.324 0 0 1-5.496-1.08zm23.691-4.664l.023.028.034.034.062.063.023.028.034.034.062.062.056.068.057.062.029.023.034.04.056.068.023.022.033.04.057.068.023.022.034.04.056.068.017.022.04.046.05.062.023.028.029.034.056.068.022.029.029.033.051.068.028.034.023.029.051.067.034.04.016.028.052.063.05.068.046.068.04.05.01.018.052.068.04.056.005.012.05.067.04.063.006.005.045.068.045.068.006.006.045.068.046.067v.006l.045.068.046.068.005.006.04.068.045.067.005.012.035.062.045.068.011.017.034.056.04.074.017.017.028.05.04.075.017.028.022.045.045.073.018.035.022.04.04.073.022.034.017.04.04.073.022.045.017.028.04.074.022.05.017.03.034.073.029.05.011.023.034.08.028.056.012.017.034.08.073.152.029.068.005.005.034.08.034.073.034.08.034.08.029.078.033.074.006.011.028.068.029.08.005.016.029.063.028.079.006.023.056.135.006.029.022.05.029.085.011.03.017.05.05.158a14.334 14.334 0 0 1-5.155-1.132 14.458 14.458 0 0 1-4.273-2.807 16.65 16.65 0 0 0 1.477-2.06c.25-.424.492-.865.708-1.318l.017-.029.017-.04.017-.033.017-.034.011-.034.017-.034.017-.034.017-.04.017-.028v-.006l.011-.034.017-.034.017-.034.017-.034.012-.033.017-.034.017-.034.011-.04h.006l.011-.034.017-.034.011-.034.017-.034v-.011l.012-.028.017-.034.017-.034a14.256 14.256 0 0 1 3.384 2.518l.028.023.046.045z"/></g></g></svg>