<svg xmlns="http://www.w3.org/2000/svg" width="73" height="33" viewBox="0 0 73 33"><g><g><g><g><text style="line-height:24px;font-kerning:normal" dominant-baseline="text-before-edge" font-family="'Montserrat','Montserrat-Bold'" font-size="20" font-style="none" font-weight="700" transform="translate(-1 12)"><tspan>MEP</tspan></text></g></g><g><path fill="#f99584" d="M62.694 1.424c2.56-2 7.122-1.44 9.123 1.12 2.001 2.561 1.441 7.123-1.12 9.124l-9.456 7.388c-2.561 2.001-7.123 1.441-9.124-1.12-2-2.561-1.44-7.123 1.12-9.124z"/></g><g><path fill="purple" d="M62.759 13.944c2.561-2.001 7.123-1.441 9.124 1.12 2 2.561 1.44 7.123-1.12 9.124l-9.457 7.388c-2.56 2-7.123 1.44-9.123-1.12-2.001-2.561-1.441-7.123 1.12-9.124z"/></g></g></g></svg>