<svg xmlns="http://www.w3.org/2000/svg" width="50" height="50" viewBox="0 0 50 50"><g><g><path fill="#fff" d="M24.625 49.25C11.025 49.25 0 38.225 0 24.625S11.025 0 24.625 0 49.25 11.025 49.25 24.625 38.225 49.25 24.625 49.25zm-3.476-11.229h5.535V24.623h3.693l.49-4.616h-4.183l.006-2.311c0-1.204.115-1.85 1.842-1.85h2.308V11.23h-3.693c-4.437 0-5.998 2.24-5.998 6.006v2.772h-2.766v4.617h2.766z"/></g><g><path fill="#fff" d="M24.625 49.25C11.025 49.25 0 38.225 0 24.625S11.025 0 24.625 0 49.25 11.025 49.25 24.625 38.225 49.25 24.625 49.25zm-3.476-11.229h5.535V24.623h3.693l.49-4.616h-4.183l.006-2.311c0-1.204.115-1.85 1.842-1.85h2.308V11.23h-3.693c-4.437 0-5.998 2.24-5.998 6.006v2.772h-2.766v4.617h2.766z"/></g><g><path fill="#fff" d="M24.625 49.25C11.025 49.25 0 38.225 0 24.625S11.025 0 24.625 0 49.25 11.025 49.25 24.625 38.225 49.25 24.625 49.25zm-3.476-11.229h5.535V24.623h3.693l.49-4.616h-4.183l.006-2.311c0-1.204.115-1.85 1.842-1.85h2.308V11.23h-3.693c-4.437 0-5.998 2.24-5.998 6.006v2.772h-2.766v4.617h2.766z"/></g><g><path fill="#fff" d="M24.625 49.25C11.025 49.25 0 38.225 0 24.625S11.025 0 24.625 0 49.25 11.025 49.25 24.625 38.225 49.25 24.625 49.25zm-3.476-11.229h5.535V24.623h3.693l.49-4.616h-4.183l.006-2.311c0-1.204.115-1.85 1.842-1.85h2.308V11.23h-3.693c-4.437 0-5.998 2.24-5.998 6.006v2.772h-2.766v4.617h2.766z"/></g></g></svg>