<svg xmlns="http://www.w3.org/2000/svg" width="91" height="76" viewBox="0 0 91 76"><g><g><g><g><path fill="#ee7965" d="M10.49 60.897a2.046 2.046 0 0 1 .75 2.797l-.02.031c-.283.475-.73.791-1.223.924a2.049 2.049 0 0 1-2.506-1.45 2.038 2.038 0 0 1 .207-1.551c.28-.49.737-.817 1.24-.955a2.058 2.058 0 0 1 1.552.204zm14.27-42.623V4.962c0-1.036.408-1.97 1.072-2.634a3.679 3.679 0 0 1 2.62-1.077h12.711c.345 0 .628-.281.628-.623A.63.63 0 0 0 41.163 0h-12.71c-1.381 0-2.616.551-3.507 1.445a4.954 4.954 0 0 0-1.442 3.517v13.312a.629.629 0 0 0 1.256 0zm-4.34 57.538a.629.629 0 0 0 0-1.255H.629a.628.628 0 1 0 0 1.255zm69.203.112a.627.627 0 1 0 0-1.255h-5.222a.628.628 0 1 0 0 1.255zm-9.497 0a.629.629 0 0 0 0-1.255H38.353a.628.628 0 1 0 0 1.255zM63.37 72.25a.626.626 0 1 0 0-1.25H13.308a.626.626 0 0 0 0 1.25zM26.327 33.47a.624.624 0 0 1-.227-.852.621.621 0 0 1 .852-.23 8.677 8.677 0 0 1 3.2 3.21 8.715 8.715 0 0 1 1.15 4.396.625.625 0 0 1-1.248-.005 7.508 7.508 0 0 0-.988-3.772 7.44 7.44 0 0 0-2.74-2.747zm-7.484 12.88a.63.63 0 0 1 .353.56.629.629 0 0 1-.628.628.65.65 0 0 1-.357-.107 8.689 8.689 0 0 1-4.01-5.257 8.668 8.668 0 0 1 .845-6.555.625.625 0 0 1 1.194.266.655.655 0 0 1-.084.316 7.41 7.41 0 0 0-.745 5.645 7.442 7.442 0 0 0 3.432 4.503zm-8.608 16.114a.8.8 0 0 0-.973-.561.794.794 0 1 0 .878 1.194l.016-.03a.785.785 0 0 0 .079-.603zm52.234-19.56c.345 0 .626.28.626.627V55.9c0 .347-.281.628-.626.628h-3.747a.627.627 0 0 1-.627-.628V43.53c0-.347.28-.627.628-.627zm-.628 1.255h-2.49v11.113h2.49zm-9.27 3.36h3.745c.344 0 .628.28.628.627V55.9a.629.629 0 0 1-.628.628h-3.744a.627.627 0 0 1-.628-.628v-7.754c0-.347.28-.628.628-.628zm.626 1.255v6.498h2.49v-6.498zm-6.779-3.798h3.745c.347 0 .627.281.627.628V55.9c0 .347-.28.628-.627.628h-3.745a.627.627 0 0 1-.628-.628V45.604c0-.347.281-.628.628-.628zm3.117 1.256h-2.49v9.04h2.49zm-9.27-4.87h3.746a.63.63 0 0 1 .628.628V55.9a.629.629 0 0 1-.628.627h-3.746a.63.63 0 0 1-.628-.627V41.99a.63.63 0 0 1 .628-.628zm3.119 1.256h-2.491v12.654h2.49zm-9.27 5.701h3.744c.347 0 .628.281.628.628V55.9c0 .347-.28.628-.628.628h-3.744a.627.627 0 0 1-.628-.628v-6.953c0-.347.28-.628.628-.628zm3.116 1.256h-2.488v5.697h2.488zm2.756-27.253a9.313 9.313 0 0 0-.39 2.67 9.42 9.42 0 0 0 1.667 5.324 9.344 9.344 0 0 0 4.397 3.46 9.308 9.308 0 0 0 3.306.593 9.358 9.358 0 0 0 6.622-2.741 9.341 9.341 0 0 0 2.744-6.626 9.39 9.39 0 0 0-.638-3.425 9.372 9.372 0 0 0-3.466-4.314 9.446 9.446 0 0 0-5.278-1.633 9.35 9.35 0 0 0-2.794.434l3.162 8.56a.65.65 0 0 1-.837.837zm4.725-6.396l-.01-.03-.006-.02-.477-1.287a11.26 11.26 0 0 0-5.773 5.773l9.157 3.384zm.99-1.087a10.649 10.649 0 0 1 3.249-.516c2.17 0 4.26.68 6.008 1.864a10.643 10.643 0 0 1 3.951 4.915c.467 1.2.73 2.512.73 3.9 0 2.946-1.197 5.62-3.126 7.55a10.642 10.642 0 0 1-7.547 3.124c-1.338 0-2.604-.245-3.765-.68a10.648 10.648 0 0 1-5.01-3.94 10.712 10.712 0 0 1-1.901-6.064c0-1.031.15-2.077.474-3.119l-1.4-.52a.653.653 0 0 1-.389-.838 12.502 12.502 0 0 1 2.892-4.507 12.557 12.557 0 0 1 4.507-2.89.656.656 0 0 1 .837.389zm7.667 45.032h-32.87c.125 1.975.834 3.502 1.896 4.584 1.327 1.352 3.216 2.042 5.202 2.057l29.65.04a8.387 8.387 0 0 1-1.188-.872 7.658 7.658 0 0 1-.594-.587c-.72-.786-.978-1.348-1.442-2.271a8.847 8.847 0 0 1-.61-2.44v-.006l-.01-.097-.011-.102-.008-.097v-.005l-.007-.102zm-40.77-7.534a.82.82 0 0 0-.625-.082.84.84 0 0 0-.503.378L5.64 62.735a.854.854 0 0 0-.058.592.82.82 0 0 0 .342.475l.077.046 4.241 2.45a.839.839 0 0 0 1.105-.312l5.83-10.102a.825.825 0 0 0-.293-1.072c-1.427-.827-2.854-1.658-4.286-2.475zm4.372.898l1.442-2.608a12.3 12.3 0 0 1-2.88-1.66l-.037-.025-1.57 2.716m16.577-5.227l.003-.005.025-.03c.09-.108.174-.22.258-.333l.028-.035.005-.005.051-.072.026-.036h.002l.026-.04.028-.036.018-.03.01-.011.026-.036c1.457-2.144 2.09-4.589 1.725-7.289v-.005l-.018-.117v-.006l-.018-.112-.002-.005-.02-.117v-.005l-.021-.118h-.003l-.023-.118v-.004l-.025-.118-.026-.117-.002-.005-.028-.118-.028-.117-.031-.118-.033-.117v-.005l-.033-.113-.036-.117-.036-.117-.038-.118-.038-.117-.041-.113-.043-.117-.041-.112h-.003l-.043-.113v-.005l-.046-.107v-.005l-.049-.112-.048-.112-.051-.108v-.005l-.051-.107v-.005l-.051-.107h-.003l-.053-.107v-.005l-.054-.108h-.003l-.056-.107v-.005l-.058-.102v-.005l-.06-.102-.002-.005-.058-.102v-.005l-.061-.103-.003-.005-.062-.102h-.002l-.061-.102-.003-.005-.064-.097-.002-.005-.064-.102-.005-.005-.064-.097-.005-.005-.066-.097-.072-.097-.002-.005-.07-.097-.002-.005-.071-.097-.003-.005c-.865-1.113-1.814-1.976-3.017-2.675l-.65-.347-.01-.005-.01-.005a10.225 10.225 0 0 0-7.137-.69 10.218 10.218 0 0 0-6.197 4.738l-.015.03a10.212 10.212 0 0 0-1.021 7.77 10.269 10.269 0 0 0 3.01 4.935l.014.01c.263.236.544.465.835.674.227.169.462.322.704.47l.013.01c4.443 2.618 10.002 1.654 13.205-2.241zM72.295 7.6l-.017.025-.034.046-.012.02-.038.057-.006.01-.043.061-.003.005-.04.067-.006.005a7.635 7.635 0 0 0-.919 2.149v.005l-.017.077-.005.01-.016.066-.005.026-.012.056-.008.036-.008.046-.01.04-.007.041-.01.051-.006.031-.01.061-.005.02-.01.072-.003.01-.012.082-.013.087v.005l-.01.076-.003.015-.008.067-.002.025-.008.062-.003.036-.005.045-.005.046-.002.041h15.038a7.553 7.553 0 0 0-2.185-4.711 7.533 7.533 0 0 0-5.334-2.21c-2.504-.01-4.778 1.22-6.198 3.24zM28.024 58.62zm25.954 0c.347 0 .628.28.628.627l.002.097v.103l.003.096c.066 1.751.561 3.37 1.779 4.707.806.888 1.832 1.516 2.953 1.904l.061.02.02.005c.606.2 1.236.327 1.876.378h1.509c1.873-.164 3.693-.94 4.984-2.313 1.118-1.189 1.851-2.843 1.902-4.95l-.003-47.37v-.021l.003-.107.002-.112.003-.113.005-.112a8.784 8.784 0 0 1 3.836-6.825l.002-.005.029-.02.03-.015.023-.02h.005l.03-.021.029-.02.026-.016.005-.005.03-.015.03-.02.021-.016.01-.005.029-.02.03-.016.02-.015.01-.005.031-.02.031-.016H31.653c-1 .016-1.911.43-2.572 1.087a3.6 3.6 0 0 0-1.06 2.517c.335 6.937.003 14.788.003 21.827l.301.168.02.01h.003a11.444 11.444 0 0 1 4.518 4.788l.005.01c.122.24.235.49.34.74l.002.011.102.255.048.123v.005l.046.122.003.005.043.128.046.127v.005l.082.256.002.005.039.127v.005l.038.128v.005l.036.127.036.133v.005l.033.128v.005l.03.133.03.132.029.133v.005l.025.128.003.005.023.132.003.006.02.127.002.005.02.133v.005l.022.133v.004l.017.128.003.005c.31 2.522-.143 4.982-1.445 7.233a11.44 11.44 0 0 1-4.525 4.385v8.572z"/></g></g></g></g></svg>