<svg xmlns="http://www.w3.org/2000/svg" width="50" height="50" viewBox="0 0 50 50"><g><g><g><path fill="#fff" d="M34.789 19.234v-4.537l-.59.002-3.947.014.015 4.536z"/></g><g><path fill="#fff" d="M24.502 29.71a4.718 4.718 0 0 0 4.713-4.711 4.679 4.679 0 0 0-.893-2.748 4.707 4.707 0 0 0-3.82-1.965 4.71 4.71 0 0 0-3.82 1.965 4.677 4.677 0 0 0-.891 2.748 4.716 4.716 0 0 0 4.711 4.711z"/></g><g><path fill="#fff" d="M37.888 33.212a5.18 5.18 0 0 1-5.174 5.172H16.289a5.178 5.178 0 0 1-5.173-5.172V16.787a5.178 5.178 0 0 1 5.173-5.173h16.425a5.18 5.18 0 0 1 5.174 5.173zM24.625 0C11.025 0 0 11.023 0 24.623c0 13.6 11.025 24.625 24.625 24.625 13.598 0 24.623-11.025 24.623-24.625S38.222 0 24.625 0z"/></g><g><path fill="#fff" d="M31.822 24.999c0 4.035-3.283 7.32-7.32 7.32-4.037 0-7.318-3.285-7.318-7.32 0-.973.193-1.898.537-2.748h-3.996v10.961a2.567 2.567 0 0 0 2.564 2.564h16.425a2.567 2.567 0 0 0 2.564-2.564V22.251H31.28a7.25 7.25 0 0 1 .542 2.748z"/></g></g></g></svg>