<svg xmlns="http://www.w3.org/2000/svg" width="50" height="50" viewBox="0 0 50 50"><g><g><g><path fill="#fff" d="M38.34 36.586c0 1.096-.91 1.982-2.031 1.982H12.891c-1.123 0-2.031-.887-2.031-1.982V12.897c0-1.094.908-1.982 2.031-1.982h23.417c1.121 0 2.031.889 2.031 1.982v23.689zM24.625 0C11.025 0 0 11.025 0 24.625 0 38.227 11.025 49.25 24.625 49.25c13.598 0 24.623-11.023 24.623-24.625C49.248 11.026 38.222 0 24.625 0z"/></g><g><path fill="#fff" d="M29.377 21.286c-2.201 0-3.188 1.209-3.74 2.061v.041h-.027a.223.223 0 0 0 .027-.041v-1.768h-4.15c.055 1.17 0 12.484 0 12.484h4.15V27.09c0-.375.027-.744.137-1.012.301-.744.984-1.52 2.129-1.52 1.504 0 2.104 1.146 2.104 2.824v6.68h4.15v-7.157c-.001-3.836-2.05-5.619-4.78-5.619z"/></g><g><path fill="#fff" d="M17.142 15.557c-1.419 0-2.349.934-2.349 2.159 0 1.197.9 2.158 2.294 2.158h.027c1.447 0 2.348-.961 2.348-2.158-.027-1.225-.9-2.159-2.32-2.159z"/></g><g><path fill="#fff" d="M15.04 34.063V21.579h4.151v12.484z"/></g></g></g></svg>