<svg xmlns="http://www.w3.org/2000/svg" width="95" height="31" viewBox="0 0 95 31"><defs><clipPath id="gopha"><path fill="#fff" d="M.833 15.652C.833 8 8.485.348 16.137.348h63.22C87.01.348 94.663 8 94.663 15.652c0 7.653-7.652 15.305-15.304 15.305h-63.22C8.484 30.957.832 23.305.832 15.652z"/></clipPath></defs><g><g><path fill="#fff" d="M.833 15.652C.833 8 8.485.348 16.137.348h63.22C87.01.348 94.663 8 94.663 15.652c0 7.653-7.652 15.305-15.304 15.305h-63.22C8.484 30.957.832 23.305.832 15.652z"/><path fill="none" stroke="#707070" stroke-miterlimit="50" stroke-width="4" d="M.833 15.652C.833 8 8.485.348 16.137.348h63.22C87.01.348 94.663 8 94.663 15.652v0c0 7.653-7.652 15.305-15.304 15.305h-63.22C8.484 30.957.832 23.305.832 15.652z" clip-path="url(&quot;#gopha&quot;)"/></g><g><g><text fill="#707070" style="line-height:21px;font-kerning:normal" dominant-baseline="text-before-edge" font-family="'Montserrat','Montserrat-Regular'" font-size="11" font-style="none" font-weight="400" transform="translate(44 8)"><tspan>Next</tspan></text></g></g><g><path fill="#707070" d="M38.524 16.92a.523.523 0 0 0-.15-.362l-5.07-5.053c-.2-.2-.523-.2-.723 0-.2.199-.2.522 0 .721l4.195 4.183H22.65a.511.511 0 1 0 0 1.02h14.127l-4.195 4.183c-.2.2-.2.523 0 .722.2.2.524.2.724 0l5.07-5.054a.52.52 0 0 0 .15-.36z"/></g></g></svg>