<svg xmlns="http://www.w3.org/2000/svg" width="79" height="66" viewBox="0 0 79 66"><g><g><g><g><path fill="#ee7965" d="M49.065 12.986c0-5.408 4.384-9.792 9.792-9.792 5.407 0 9.791 4.384 9.791 9.792 0 5.408-4.384 9.792-9.791 9.792-5.408 0-9.792-4.384-9.792-9.792z"/></g><g><path fill="#ee7965" d="M74.066 52.643a46.315 46.315 0 0 1-15.307 2.741c.163-5.842-4.113-16.09-12.762-22.553a21.215 21.215 0 0 1 32.345 12.207 6.528 6.528 0 0 1-4.276 7.605z"/></g><g><path fill="#ee7965" d="M48.053 61.227a6.528 6.528 0 0 0 4.178-7.638C46.225 25.65 6.275 25.552.17 53.46a6.528 6.528 0 0 0 4.276 7.67 61.035 61.035 0 0 0 43.606.098z"/></g><g><path fill="#ee7965" d="M13.13 12.954c0-7.21 5.844-13.056 13.055-13.056 7.21 0 13.056 5.845 13.056 13.056 0 7.21-5.846 13.055-13.056 13.055-7.21 0-13.056-5.845-13.056-13.055z"/></g></g></g></g></svg>