<svg xmlns="http://www.w3.org/2000/svg" width="71" height="80" viewBox="0 0 71 80"><g><g><g><g><path fill="#ee7965" d="M32.894 66.048v-.974h1.037v.974z"/></g><g><path fill="#ee7965" d="M47.113 71.742v-.974h1.036v.974z"/></g><g><path fill="#ee7965" d="M9.422 77.389v-.974h1.038v.974z"/></g><g><path fill="#ee7965" d="M42.352 66.048v-.974h1.037v.974z"/></g><g><path fill="#ee7965" d="M32.894 71.742v-.974h1.037v.974z"/></g><g><path fill="#ee7965" d="M37.59 71.742v-.974h1.038v.974z"/></g><g><path fill="#ee7965" d="M14.12 77.389v-.974h1.037v.974z"/></g><g><path fill="#ee7965" d="M51.873 77.246v-.974h1.038v.974z"/></g><g><path fill="#ee7965" d="M51.873 71.742v-.974h1.038v.974z"/></g><g><path fill="#ee7965" d="M14.12 71.742v-.974h1.037v.974z"/></g><g><path fill="#ee7965" d="M47.113 66.048v-.974h1.036v.974z"/></g><g><path fill="#ee7965" d="M18.818 66.048v-.974h1.036v.974z"/></g><g><path fill="#ee7965" d="M23.515 71.742v-.974h1.036v.974z"/></g><g><path fill="#ee7965" d="M23.515 66.048v-.974h1.036v.974z"/></g><g><path fill="#ee7965" d="M18.818 71.742v-.974h1.036v.974z"/></g><g><path fill="#ee7965" d="M23.515 77.389v-.974h1.036v.974z"/></g><g><path fill="#ee7965" d="M37.59 66.048v-.974h1.038v.974z"/></g><g><path fill="#ee7965" d="M28.197 71.742v-.974h1.036v.974z"/></g><g><path fill="#ee7965" d="M28.26 77.389v-.974h11.713v.974z"/></g><g><path fill="#ee7965" d="M14.12 66.048v-.974h1.037v.974z"/></g><g><path fill="#ee7965" d="M18.818 77.389v-.974h1.036v.974z"/></g><g><path fill="#ee7965" d="M42.352 71.742v-.974h1.037v.974z"/></g><g><path fill="#ee7965" d="M28.197 66.048v-.974h1.036v.974z"/></g><g><path fill="#ee7965" d="M47.113 77.246v-.974h1.036v.974z"/></g><g><path fill="#ee7965" d="M18.703 24.167c1.97 0 3.176-3.152 3.176-4.868a3.187 3.187 0 0 0-3.176-3.192c-1.75 0-3.175 1.432-3.175 3.192 0 1.716 1.206 4.868 3.175 4.868z"/></g><g><path fill="#ee7965" d="M10.413 27.761c0-.25.152-.472.384-.563l4.54-1.772a.604.604 0 0 1 .575.075l2.728 1.987 2.745-1.988a.604.604 0 0 1 .575-.073l4.524 1.771c.231.09.384.314.384.563v5.614c0 .334-.27.605-.605.605H11.017a.604.604 0 0 1-.604-.605zm8.29-12.862c2.418 0 4.385 1.974 4.385 4.4 0 2.18-1.466 6.077-4.385 6.077-2.878 0-4.384-3.956-4.384-6.077 0-2.426 1.967-4.4 4.384-4.4zm10.373-1.246c0-.334.27-.605.604-.605h25.29c.334 0 .605.271.605.605v19.722c0 .334-.271.605-.605.605H29.68a.604.604 0 0 1-.604-.605zM8.015 35.808h49.087V7.44H8.015z"/></g><g><path fill="#ee7965" d="M12.974 29.849a.604.604 0 0 1 1.209 0v2.907h8.913v-2.907a.604.604 0 0 1 1.21 0v2.922h1.354v-4.598l-3.833-1.5-2.832 2.052a.605.605 0 0 1-.71-.001l-2.816-2.051-3.847 1.5v4.598h1.352v-2.922z"/></g><g><path fill="#ee7965" d="M47.774 27.46a2.558 2.558 0 0 1-.142-.458c-.033-.08-.048-.143-.064-.175a2.974 2.974 0 0 1-.84.586c-.299.127-.615.19-.948.19-.6 0-1.075-.174-1.423-.49-.332-.317-.506-.744-.506-1.234 0-.317.079-.617.238-.87.157-.253.38-.459.663-.6.269-.128.68-.254 1.218-.349.712-.143 1.219-.269 1.487-.38v-.157c0-.301-.079-.507-.222-.65-.142-.126-.41-.173-.822-.173-.285 0-.49.047-.649.158-.157.11-.268.3-.364.57l-1.392-.238c.159-.57.428-.996.807-1.266.38-.268.95-.41 1.708-.41.68 0 1.202.079 1.534.252.333.158.57.364.713.618.126.237.205.696.205 1.375l-.032 1.788c0 .506.032.886.08 1.123.046.253.142.506.269.79h-1.518zm-6.121 0l-.697-1.835h-3.21l-.68 1.835h-1.708l3.116-8.034h1.708l3.211 8.034zm12.713-13.203H30.284v18.514h24.082z"/></g><g><path fill="#ee7965" d="M58.31 36.412c0 .334-.27.604-.604.604H7.411a.604.604 0 0 1-.605-.604V6.836c0-.334.271-.604.605-.604h50.295c.334 0 .605.27.605.604zm-25.689 8.275c-.987 0-1.79-.803-1.79-1.79 0-.988.803-1.79 1.79-1.79.988 0 1.791.802 1.791 1.79 0 .987-.803 1.79-1.791 1.79zM8.214 75.811c0-.334.27-.605.604-.605h2.246c.334 0 .605.27.605.605v2.182c0 .334-.27.605-.605.605H8.818a.604.604 0 0 1-.604-.605v-2.182zm0-5.647c0-.334.27-.605.604-.605h2.246c.334 0 .605.271.605.605v2.182c0 .334-.27.605-.605.605H8.818a.604.604 0 0 1-.604-.604v-2.183zm0-5.694c0-.334.27-.604.604-.604h2.246c.334 0 .605.27.605.604v2.183c0 .334-.27.604-.605.604H8.818a.604.604 0 0 1-.604-.604V64.47zm4.697 11.34c0-.333.27-.604.604-.604h2.247c.333 0 .604.27.604.605v2.182c0 .334-.27.605-.604.605h-2.247a.604.604 0 0 1-.604-.605zm0-5.646c0-.334.27-.605.604-.605h2.247c.333 0 .604.271.604.605v2.182c0 .334-.27.605-.604.605h-2.247a.604.604 0 0 1-.604-.604zm0-5.694c0-.334.27-.604.604-.604h2.247c.333 0 .604.27.604.604v2.183c0 .334-.27.604-.604.604h-2.247a.604.604 0 0 1-.604-.604zm4.698 11.34c0-.333.27-.604.605-.604h2.245c.334 0 .604.27.604.605v2.182c0 .334-.27.605-.604.605h-2.245a.604.604 0 0 1-.605-.605zm0-5.646c0-.334.27-.605.605-.605h2.245c.334 0 .604.271.604.605v2.182c0 .334-.27.605-.604.605h-2.245a.605.605 0 0 1-.605-.604zm0-5.694c0-.334.27-.604.605-.604h2.245c.334 0 .604.27.604.604v2.183c0 .334-.27.604-.604.604h-2.245a.605.605 0 0 1-.605-.604zm4.697 11.34c0-.333.27-.604.605-.604h2.245c.334 0 .604.27.604.605v2.182c0 .334-.27.605-.604.605H22.91a.604.604 0 0 1-.605-.605zm0-5.646c0-.334.27-.605.605-.605h2.245c.334 0 .604.271.604.605v2.182c0 .334-.27.605-.604.605H22.91a.604.604 0 0 1-.605-.604zm0-5.694c0-.334.27-.604.605-.604h2.245c.334 0 .604.27.604.604v2.183c0 .334-.27.604-.604.604H22.91a.604.604 0 0 1-.605-.604zm4.682 5.694c0-.334.27-.605.604-.605h2.245c.334 0 .605.271.605.605v2.182c0 .334-.27.605-.605.605h-2.245a.604.604 0 0 1-.604-.604zm0-5.694c0-.334.27-.604.604-.604h2.245c.334 0 .605.27.605.604v2.183c0 .334-.27.604-.605.604h-2.245a.604.604 0 0 1-.604-.604zm4.697 5.694c0-.334.27-.605.604-.605h2.247c.334 0 .604.271.604.605v2.182c0 .334-.27.605-.604.605h-2.247a.605.605 0 0 1-.604-.604zm0-5.694c0-.334.27-.604.604-.604h2.247c.334 0 .604.27.604.604v2.183c0 .334-.27.604-.604.604h-2.247a.604.604 0 0 1-.604-.604zm4.697 5.694c0-.334.27-.605.604-.605h2.247c.334 0 .604.271.604.605v2.182c0 .334-.27.605-.604.605h-2.247a.604.604 0 0 1-.604-.604zm0-5.694c0-.334.27-.604.604-.604h2.247c.334 0 .604.27.604.604v2.183c0 .334-.27.604-.604.604h-2.247a.604.604 0 0 1-.604-.604zm4.8 11.34v2.183c0 .334-.271.605-.605.605H27.655a.604.604 0 0 1-.604-.605v-2.182c0-.334.27-.605.604-.605h12.922c.334 0 .604.27.604.605zm-.038-5.646c0-.334.27-.605.604-.605h2.245c.334 0 .604.271.604.605v2.182c0 .334-.27.605-.604.605h-2.245a.604.604 0 0 1-.604-.604zm0-5.694c0-.334.27-.604.604-.604h2.245c.334 0 .604.27.604.604v2.183c0 .334-.27.604-.604.604h-2.245a.604.604 0 0 1-.604-.604zm4.76 11.198c0-.334.27-.604.604-.604h2.246c.333 0 .604.27.604.604v2.182c0 .334-.27.605-.604.605h-2.246a.604.604 0 0 1-.604-.605zm0-5.504c0-.334.27-.605.604-.605h2.246c.333 0 .604.271.604.605v2.182c0 .334-.27.605-.604.605h-2.246a.604.604 0 0 1-.604-.604zm0-5.694c0-.334.27-.604.604-.604h2.246c.333 0 .604.27.604.604v2.183c0 .334-.27.604-.604.604h-2.246a.604.604 0 0 1-.604-.604zm4.76 11.198c0-.334.27-.604.604-.604h2.247c.334 0 .604.27.604.604v2.182c0 .334-.27.605-.604.605h-2.247a.604.604 0 0 1-.604-.605zm0-5.504c0-.334.27-.605.604-.605h2.247c.334 0 .604.271.604.605v2.182c0 .334-.27.605-.604.605h-2.247a.604.604 0 0 1-.604-.604zm0-5.694c0-.334.27-.604.604-.604h2.247c.334 0 .604.27.604.604v2.183c0 .334-.27.604-.604.604h-2.247a.604.604 0 0 1-.604-.604zm15.598-6.402c-.145 0-.289.007-.43.022V39.348a.604.604 0 0 0-.605-.605h-4.914V6.79a2.539 2.539 0 0 0-2.528-2.544H7.459A2.546 2.546 0 0 0 4.915 6.79v24.615c-.029-.004-.057-.009-.087-.009H.604A.604.604 0 0 0 0 32v39.192c0 .334.27.604.604.604h6.493v7.633h51.032v-16.49H7.097v7.649H1.21V32.604h3.619c.03 0 .059-.005.087-.009v10.428a2.546 2.546 0 0 0 2.544 2.544h50.326a2.539 2.539 0 0 0 2.528-2.544v-3.071h4.31v18.375c0 .025.004.048.007.072a4.194 4.194 0 0 0-2.555 3.857v.471h8.392v-.471c0-2.31-1.887-4.188-4.205-4.188z"/></g><g><path fill="#ee7965" d="M9.422 66.048v-.974h1.038v.974z"/></g><g><path fill="#ee7965" d="M66.867 67.95a.604.604 0 0 1-1.209 0v-4.014h-3.584v4.188a4.193 4.193 0 0 0 4.188 4.187c2.318 0 4.204-1.878 4.204-4.187v-4.188h-3.6z"/></g><g><path fill="#ee7965" d="M38.236 24.265h2.199l-1.124-2.957z"/></g><g><path fill="#ee7965" d="M45.686 25.183c-.205.142-.3.316-.3.537 0 .222.078.396.237.554a.834.834 0 0 0 .617.237c.268 0 .537-.095.79-.268a.934.934 0 0 0 .364-.507c.048-.126.064-.38.064-.759v-.3c-.19.063-.507.142-.934.237-.428.079-.712.174-.838.269z"/></g><g><path fill="#ee7965" d="M16.018 56.993v1.274h33.207v-1.274H23.48z"/></g><g><path fill="#ee7965" d="M32.621 42.315c-.32 0-.58.26-.58.582 0 .315.265.582.58.582a.59.59 0 0 0 .582-.582.582.582 0 0 0-.582-.582z"/></g><g><path fill="#ee7965" d="M26.634 46.775l-2.37 9.009h16.7l-2.372-9.009z"/></g><g><path fill="#ee7965" d="M51.873 66.048v-.974h1.038v.974z"/></g><g><path fill="#ee7965" d="M9.422 71.742v-.974h1.038v.974z"/></g><g><path fill="#ee7965" d="M1.1 20.236c.334 0 .605-.27.605-.604V4.1a2.894 2.894 0 0 1 2.89-2.891h8.92a.604.604 0 1 0 0-1.21h-8.92c-2.26 0-4.1 1.84-4.1 4.1v15.532c0 .334.271.605.605.605z"/></g><g><path fill="#ee7965" d="M60.633 1.209a2.895 2.895 0 0 1 2.89 2.891v6.563a.604.604 0 0 0 1.209 0V4.1c0-2.26-1.839-4.1-4.1-4.1a.604.604 0 0 0 0 1.209z"/></g></g></g></g></svg>