<svg xmlns="http://www.w3.org/2000/svg" width="50" height="50" viewBox="0 0 50 50"><g><g><path fill="#fff" d="M37.029 19.66c.013.266.018.533.018.803 0 8.201-6.242 17.656-17.656 17.656a17.572 17.572 0 0 1-9.513-2.787c.486.057.979.086 1.48.086a12.45 12.45 0 0 0 7.707-2.656 6.214 6.214 0 0 1-5.796-4.311 6.06 6.06 0 0 0 1.167.111c.566 0 1.114-.074 1.635-.217a6.21 6.21 0 0 1-4.979-6.084l.001-.08a6.184 6.184 0 0 0 2.811.777 6.204 6.204 0 0 1-2.761-5.166c0-1.137.306-2.204.84-3.12a17.618 17.618 0 0 0 12.792 6.483 6.206 6.206 0 0 1 6.045-7.619 6.2 6.2 0 0 1 4.529 1.959 12.395 12.395 0 0 0 3.941-1.506 6.223 6.223 0 0 1-2.73 3.433 12.407 12.407 0 0 0 3.565-.977 12.537 12.537 0 0 1-3.096 3.215zM24.625 0C11.025 0 0 11.027 0 24.625c0 13.6 11.025 24.623 24.625 24.623s24.623-11.023 24.623-24.623C49.248 11.027 38.224 0 24.625 0z"/></g></g></svg>